<?xml version="1.0" encoding="utf-8" ?>
<svg baseProfile="full" height="1536" version="1.1" viewBox="0 0 1024 1536" width="1024" xmlns="http://www.w3.org/2000/svg" xmlns:ev="http://www.w3.org/2001/xml-events" xmlns:xlink="http://www.w3.org/1999/xlink"><defs /><polygon fill="yellow" points="837,1535" stroke="black" stroke-width="2" /><polygon fill="black" points="839,833 838,834 838,835 839,836 840,836 841,835 841,834 840,833" stroke="black" stroke-width="2" /><polygon fill="deepskyblue" points="190,98 190,99 191,99 191,98" stroke="black" stroke-width="2" /><polygon fill="green" points="196,53 197,53" stroke="black" stroke-width="2" /><polygon fill="yellow" points="268,13 268,14 269,14 269,13" stroke="black" stroke-width="2" /><polygon fill="black" points="0,0 0,1535 581,1535 632,1144 842,823 839,1535 1023,1535 1023,0 285,0 209,109 197,0" stroke="black" stroke-width="2" /></svg>